<svg width="13" height="13" viewBox="0 0 13 13" fill="none" xmlns="http://www.w3.org/2000/svg">
<path d="M0.0296414 12.9997C-0.0361187 12.2634 -6.48445e-05 11.5479 0.214988 10.8594C0.349048 10.4298 0.691305 10.1518 1.11049 10.02C1.70716 9.83234 2.31906 9.69422 2.91826 9.51421C3.27372 9.40706 3.63426 9.29078 3.96636 9.12523C4.71994 8.74971 4.84435 8.20713 4.49371 7.43197C4.10499 6.57278 3.74648 5.69428 3.45272 4.79827C3.18384 3.97919 3.17343 3.12481 3.39432 2.27552C3.71297 1.04715 4.62091 0.221723 5.87594 0.0490707C6.78567 -0.076102 7.654 0.0168254 8.42662 0.578452C9.57831 1.41632 9.79387 2.62082 9.65981 3.92485C9.53515 5.13646 9.09844 6.26073 8.53504 7.33245C8.05263 8.24979 8.23416 8.83274 9.19238 9.2113C9.81723 9.45759 10.4804 9.60358 11.1261 9.79527C11.3912 9.87424 11.6661 9.93238 11.9175 10.0436C12.406 10.2594 12.7663 10.6037 12.8267 11.1752C12.8899 11.7739 12.9407 12.3739 12.9994 13H0.0296414V12.9997Z" fill="black"/>
</svg>
